<svg width="145" height="41" viewBox="0 0 145 41" fill="none" xmlns="http://www.w3.org/2000/svg">
<path d="M5.125 10.25C5.125 7.41955 7.41955 5.125 10.25 5.125H23.9167C26.7472 5.125 29.0417 7.41955 29.0417 10.25V23.9167C29.0417 26.7472 26.7472 29.0417 23.9167 29.0417H10.25C7.41955 29.0417 5.125 26.7472 5.125 23.9167V10.25Z" stroke="#6A01AB" stroke-width="4" stroke-linecap="round" stroke-linejoin="round"/>
<path d="M35.875 11.9583V30.75C35.875 33.5805 33.5805 35.875 30.75 35.875H11.9583" stroke="#6A01AB" stroke-width="4" stroke-linecap="round" stroke-linejoin="round"/>
<path d="M15.375 20.5V13.6667L20.7441 17.0833L15.375 20.5Z" fill="#6A01AB" stroke="#6A01AB" stroke-width="4" stroke-linecap="round" stroke-linejoin="round"/>
<path d="M42.869 28C42.5903 28 42.356 27.905 42.166 27.715C41.9887 27.525 41.9 27.2907 41.9 27.012V14.149C41.9 13.8703 41.995 13.636 42.185 13.446C42.375 13.256 42.603 13.161 42.869 13.161C43.1477 13.161 43.382 13.256 43.572 13.446C43.762 13.636 43.857 13.8703 43.857 14.149V26.024H50.735C51.0137 26.024 51.248 26.119 51.438 26.309C51.628 26.499 51.723 26.7333 51.723 27.012C51.723 27.2907 51.628 27.525 51.438 27.715C51.248 27.905 51.0137 28 50.735 28H42.869ZM55.0594 28C54.7808 28 54.5464 27.9113 54.3564 27.734C54.1791 27.544 54.0904 27.3097 54.0904 27.031V18.576C54.0904 18.2847 54.1791 18.0503 54.3564 17.873C54.5464 17.6957 54.7808 17.607 55.0594 17.607C55.3508 17.607 55.5851 17.6957 55.7624 17.873C55.9398 18.0503 56.0284 18.2847 56.0284 18.576V27.031C56.0284 27.3097 55.9398 27.544 55.7624 27.734C55.5851 27.9113 55.3508 28 55.0594 28ZM55.0594 15.916C54.7174 15.916 54.4198 15.7957 54.1664 15.555C53.9258 15.3017 53.8054 15.004 53.8054 14.662C53.8054 14.32 53.9258 14.0287 54.1664 13.788C54.4198 13.5347 54.7174 13.408 55.0594 13.408C55.4014 13.408 55.6928 13.5347 55.9334 13.788C56.1868 14.0287 56.3134 14.32 56.3134 14.662C56.3134 15.004 56.1868 15.3017 55.9334 15.555C55.6928 15.7957 55.4014 15.916 55.0594 15.916ZM64.8588 28.076C63.8708 28.076 62.9842 27.848 62.1988 27.392C61.4135 26.9233 60.7928 26.29 60.3368 25.492C59.8808 24.694 59.6465 23.7947 59.6338 22.794V14.13C59.6338 13.8387 59.7225 13.6043 59.8998 13.427C60.0898 13.2497 60.3242 13.161 60.6028 13.161C60.8942 13.161 61.1285 13.2497 61.3058 13.427C61.4832 13.6043 61.5718 13.8387 61.5718 14.13V19.26C62.0152 18.728 62.5472 18.31 63.1678 18.006C63.8012 17.6893 64.4915 17.531 65.2388 17.531C66.1635 17.531 66.9932 17.7653 67.7278 18.234C68.4625 18.69 69.0388 19.317 69.4568 20.115C69.8875 20.9003 70.1028 21.7933 70.1028 22.794C70.1028 23.7947 69.8685 24.694 69.3998 25.492C68.9438 26.29 68.3232 26.9233 67.5378 27.392C66.7525 27.848 65.8595 28.076 64.8588 28.076ZM64.8588 26.366C65.5048 26.366 66.0812 26.214 66.5878 25.91C67.0945 25.5933 67.4935 25.1627 67.7848 24.618C68.0888 24.0733 68.2408 23.4653 68.2408 22.794C68.2408 22.11 68.0888 21.502 67.7848 20.97C67.4935 20.438 67.0945 20.02 66.5878 19.716C66.0812 19.3993 65.5048 19.241 64.8588 19.241C64.2255 19.241 63.6492 19.3993 63.1298 19.716C62.6232 20.02 62.2242 20.438 61.9328 20.97C61.6415 21.502 61.4958 22.11 61.4958 22.794C61.4958 23.4653 61.6415 24.0733 61.9328 24.618C62.2242 25.1627 62.6232 25.5933 63.1298 25.91C63.6492 26.214 64.2255 26.366 64.8588 26.366ZM73.5442 28.304C73.1895 28.304 72.8792 28.1773 72.6132 27.924C72.3599 27.658 72.2332 27.3477 72.2332 26.993C72.2332 26.6257 72.3599 26.3153 72.6132 26.062C72.8792 25.796 73.1895 25.663 73.5442 25.663C73.9115 25.663 74.2219 25.796 74.4752 26.062C74.7285 26.3153 74.8552 26.6257 74.8552 26.993C74.8552 27.3477 74.7285 27.658 74.4752 27.924C74.2219 28.1773 73.9115 28.304 73.5442 28.304ZM82.8025 28C82.3972 28 82.0995 27.791 81.9095 27.373L76.3425 14.643C76.1652 14.2123 76.1462 13.8577 76.2855 13.579C76.4249 13.3003 76.6909 13.161 77.0835 13.161C77.5269 13.161 77.8309 13.3573 77.9955 13.75L82.8785 25.473H82.6695L87.6475 13.75C87.7489 13.522 87.8629 13.37 87.9895 13.294C88.1289 13.2053 88.3125 13.161 88.5405 13.161C88.9205 13.161 89.1802 13.3003 89.3195 13.579C89.4715 13.845 89.4715 14.1427 89.3195 14.472L83.6955 27.373C83.6069 27.5757 83.4865 27.734 83.3345 27.848C83.1952 27.9493 83.0179 28 82.8025 28ZM92.6883 28C92.4097 28 92.1753 27.9113 91.9853 27.734C91.808 27.544 91.7193 27.3097 91.7193 27.031V18.576C91.7193 18.2847 91.808 18.0503 91.9853 17.873C92.1753 17.6957 92.4097 17.607 92.6883 17.607C92.9797 17.607 93.214 17.6957 93.3913 17.873C93.5687 18.0503 93.6573 18.2847 93.6573 18.576V27.031C93.6573 27.3097 93.5687 27.544 93.3913 27.734C93.214 27.9113 92.9797 28 92.6883 28ZM92.6883 15.916C92.3463 15.916 92.0487 15.7957 91.7953 15.555C91.5547 15.3017 91.4343 15.004 91.4343 14.662C91.4343 14.32 91.5547 14.0287 91.7953 13.788C92.0487 13.5347 92.3463 13.408 92.6883 13.408C93.0303 13.408 93.3217 13.5347 93.5623 13.788C93.8157 14.0287 93.9423 14.32 93.9423 14.662C93.9423 15.004 93.8157 15.3017 93.5623 15.555C93.3217 15.7957 93.0303 15.916 92.6883 15.916ZM101.975 28.076C100.987 28.076 100.094 27.848 99.2957 27.392C98.5104 26.9233 97.8834 26.29 97.4147 25.492C96.9587 24.694 96.7307 23.7947 96.7307 22.794C96.7307 21.7933 96.9397 20.9003 97.3577 20.115C97.7884 19.317 98.3711 18.69 99.1057 18.234C99.8404 17.7653 100.67 17.531 101.595 17.531C102.342 17.531 103.032 17.6893 103.666 18.006C104.299 18.31 104.831 18.728 105.262 19.26V14.13C105.262 13.8387 105.35 13.6043 105.528 13.427C105.718 13.2497 105.952 13.161 106.231 13.161C106.522 13.161 106.756 13.2497 106.934 13.427C107.111 13.6043 107.2 13.8387 107.2 14.13V22.794C107.2 23.7947 106.965 24.694 106.497 25.492C106.041 26.29 105.42 26.9233 104.635 27.392C103.849 27.848 102.963 28.076 101.975 28.076ZM101.975 26.366C102.621 26.366 103.197 26.214 103.704 25.91C104.21 25.5933 104.609 25.1627 104.901 24.618C105.192 24.0733 105.338 23.4653 105.338 22.794C105.338 22.11 105.192 21.502 104.901 20.97C104.609 20.438 104.21 20.02 103.704 19.716C103.197 19.3993 102.621 19.241 101.975 19.241C101.341 19.241 100.765 19.3993 100.246 19.716C99.7391 20.02 99.3337 20.438 99.0297 20.97C98.7384 21.502 98.5927 22.11 98.5927 22.794C98.5927 23.4653 98.7384 24.0733 99.0297 24.618C99.3337 25.1627 99.7391 25.5933 100.246 25.91C100.765 26.214 101.341 26.366 101.975 26.366ZM115.505 28.076C114.454 28.076 113.516 27.8543 112.693 27.411C111.882 26.955 111.243 26.3343 110.774 25.549C110.318 24.751 110.09 23.839 110.09 22.813C110.09 21.7743 110.305 20.8623 110.736 20.077C111.179 19.279 111.787 18.6583 112.56 18.215C113.333 17.759 114.219 17.531 115.22 17.531C116.208 17.531 117.057 17.7527 117.766 18.196C118.475 18.6267 119.014 19.2283 119.381 20.001C119.761 20.761 119.951 21.6413 119.951 22.642C119.951 22.8827 119.869 23.0853 119.704 23.25C119.539 23.402 119.33 23.478 119.077 23.478H111.42V21.958H119.02L118.241 22.49C118.228 21.8567 118.102 21.293 117.861 20.799C117.62 20.2923 117.278 19.8933 116.835 19.602C116.392 19.3107 115.853 19.165 115.22 19.165C114.498 19.165 113.877 19.3233 113.358 19.64C112.851 19.9567 112.465 20.3937 112.199 20.951C111.933 21.4957 111.8 22.1163 111.8 22.813C111.8 23.5097 111.958 24.1303 112.275 24.675C112.592 25.2197 113.029 25.6503 113.586 25.967C114.143 26.2837 114.783 26.442 115.505 26.442C115.898 26.442 116.297 26.3723 116.702 26.233C117.12 26.081 117.456 25.91 117.709 25.72C117.899 25.5807 118.102 25.511 118.317 25.511C118.545 25.4983 118.741 25.5617 118.906 25.701C119.121 25.891 119.235 26.1 119.248 26.328C119.261 26.556 119.159 26.7523 118.944 26.917C118.513 27.259 117.975 27.5377 117.329 27.753C116.696 27.9683 116.088 28.076 115.505 28.076ZM126.764 28.076C125.738 28.076 124.832 27.8543 124.047 27.411C123.261 26.955 122.641 26.3343 122.185 25.549C121.741 24.751 121.52 23.839 121.52 22.813C121.52 21.7743 121.741 20.8623 122.185 20.077C122.641 19.279 123.261 18.6583 124.047 18.215C124.832 17.759 125.738 17.531 126.764 17.531C127.777 17.531 128.676 17.759 129.462 18.215C130.247 18.6583 130.861 19.279 131.305 20.077C131.761 20.8623 131.989 21.7743 131.989 22.813C131.989 23.839 131.767 24.751 131.324 25.549C130.88 26.3343 130.266 26.955 129.481 27.411C128.695 27.8543 127.79 28.076 126.764 28.076ZM126.764 26.366C127.422 26.366 128.005 26.214 128.512 25.91C129.018 25.606 129.411 25.188 129.69 24.656C129.981 24.124 130.127 23.5097 130.127 22.813C130.127 22.1163 129.981 21.502 129.69 20.97C129.411 20.4253 129.018 20.001 128.512 19.697C128.005 19.393 127.422 19.241 126.764 19.241C126.105 19.241 125.522 19.393 125.016 19.697C124.509 20.001 124.11 20.4253 123.819 20.97C123.527 21.502 123.382 22.1163 123.382 22.813C123.382 23.5097 123.527 24.124 123.819 24.656C124.11 25.188 124.509 25.606 125.016 25.91C125.522 26.214 126.105 26.366 126.764 26.366ZM138.654 28.076C137.767 28.076 136.944 27.943 136.184 27.677C135.437 27.3983 134.854 27.05 134.436 26.632C134.246 26.4293 134.164 26.2013 134.189 25.948C134.227 25.682 134.354 25.4667 134.569 25.302C134.822 25.0993 135.069 25.017 135.31 25.055C135.563 25.0803 135.779 25.188 135.956 25.378C136.171 25.6187 136.513 25.8467 136.982 26.062C137.463 26.2647 137.995 26.366 138.578 26.366C139.313 26.366 139.87 26.2457 140.25 26.005C140.643 25.7643 140.845 25.454 140.858 25.074C140.871 24.694 140.687 24.3647 140.307 24.086C139.94 23.8073 139.262 23.5793 138.274 23.402C136.995 23.1487 136.064 22.7687 135.481 22.262C134.911 21.7553 134.626 21.1347 134.626 20.4C134.626 19.754 134.816 19.222 135.196 18.804C135.576 18.3733 136.064 18.0567 136.659 17.854C137.254 17.6387 137.875 17.531 138.521 17.531C139.357 17.531 140.098 17.664 140.744 17.93C141.39 18.196 141.903 18.5633 142.283 19.032C142.46 19.2347 142.543 19.45 142.53 19.678C142.517 19.8933 142.41 20.077 142.207 20.229C142.004 20.3683 141.764 20.4127 141.485 20.362C141.206 20.3113 140.972 20.1973 140.782 20.02C140.465 19.716 140.123 19.507 139.756 19.393C139.389 19.279 138.964 19.222 138.483 19.222C137.926 19.222 137.451 19.317 137.058 19.507C136.678 19.697 136.488 19.9757 136.488 20.343C136.488 20.571 136.545 20.78 136.659 20.97C136.786 21.1473 137.026 21.312 137.381 21.464C137.736 21.6033 138.255 21.7427 138.939 21.882C139.889 22.072 140.636 22.3127 141.181 22.604C141.738 22.8953 142.137 23.2373 142.378 23.63C142.619 24.01 142.739 24.4533 142.739 24.96C142.739 25.5427 142.581 26.0683 142.264 26.537C141.96 27.0057 141.504 27.3793 140.896 27.658C140.301 27.9367 139.553 28.076 138.654 28.076Z" fill="#6A01AB"/>
</svg>
